# xmcd
# 
# Track frame offsets:
#     150
#     47321
#     77704
#     86994
#     98920
#     122199
#     137651
#     157580
#     175361
#     205630
#     212674
# 
# Disc length: 3152
# 
# Revision: 0
# Processed by: cddbd v1.5.2PL0 Copyright (c) Steve Scherf et al.
# Submitted via: fre:ac v1.1beta1pre4
# 
DISCID=890c4e0b
DTITLE=Various Artist - Psycho-Pass Complete Original Soundtrack 2 - CD3
DYEAR=2015
DGENRE=Anime
TTITLE0=Yugo Kanno - Hyoteki No Tansaku
TTITLE1=Yugo Kanno - Soshiki Bouryoku
TTITLE2=Yugo Kanno - Ikari No Manazashi
TTITLE3=Yugo Kanno - Shikkou Mode
TTITLE4=AKANE - Psycho-Pass Feat.Akane (Movie Mix)
TTITLE5=Yugo Kanno - Makishima Seigo (Movie Mix)
TTITLE6=Yugo Kanno - Umidasareta Seibutsu (Movie Mix)
TTITLE7=Yugo Kanno - Inochi No Arikata (Movie Mix)
TTITLE8=Yugo Kanno - Psycho-Pass (Movie Mix)
TTITLE9=Ling tosite sigure - Who What Who What (Movie Edit)
TTITLE10=EGOIST - Namae No Nai Kaibutsu
EXTD=
EXTT0=
EXTT1=
EXTT2=
EXTT3=
EXTT4=
EXTT5=
EXTT6=
EXTT7=
EXTT8=
EXTT9=
EXTT10=
PLAYORDER=
